# xmcd
#
# Track frame offsets:
#	150
#	15757
#	32744
#	49199
#	66828
#	83036
#	112841
#	132332
#	152082
#	171930
#	192802
#	213322
#	227928
#	253471
#
# Disc length: 3757 seconds
#
# Revision: 1
# Processed by: cddbd v1.5.2PL0 Copyright (c) Steve Scherf et al.
# Submitted via: EZCDAudioConverter 3.1.5.1
#
DISCID=b80eab0e
DTITLE=Darlene Love - Introducing Darlene Love
DYEAR=2015
DGENRE=R&B
TTITLE0=Among The Believers
TTITLE1=Forbidden Nights
TTITLE2=Love Kept Us Foolin' Around
TTITLE3=Little Liar
TTITLE4=Still Too Soon To Know
TTITLE5=Who Under Heaven
TTITLE6=Night Closing In
TTITLE7=Painkiller
TTITLE8=Just Another Lonely Mile
TTITLE9=Last Time
TTITLE10=River Deep, Mountain High
TTITLE11=Sweet Freedom
TTITLE12=Marvelous
TTITLE13=Jesus Is The Rock (That Keeps Me Rollin')
EXTD=
EXTT0=
EXTT1=
EXTT2=
EXTT3=
EXTT4=
EXTT5=
EXTT6=
EXTT7=
EXTT8=
EXTT9=
EXTT10=
EXTT11=
EXTT12=
EXTT13=
PLAYORDER=
